<svg id="Capa_1" enable-background="new 0 0 512 512" height="512" viewBox="0 0 512 512" width="512" xmlns="http://www.w3.org/2000/svg"><g><g><g><g><g><g><g><path d="m349.254 155.771c-7.521 35.2-34.523 63.196-69.196 72.196v28.596h-48.116v-28.596c-34.674-9-61.675-36.996-69.196-72.196h-85.49v214.982h357.489v-214.982z" fill="#b2f0fb"/></g></g></g></g></g></g><g fill="#020288"><path d="m502 404.754h-13.255v-272.855c0-22.126-18.001-40.128-40.128-40.128h-96.94c-16.718-36.085-53.318-61.181-95.677-61.181s-78.958 25.095-95.677 61.181h-96.94c-22.126 0-40.127 18.001-40.127 40.128v272.855h-13.256c-5.523 0-10 4.477-10 10v30.051c0 20.184 16.421 36.604 36.604 36.604h438.791c20.184 0 36.604-16.421 36.604-36.604v-30.051c.001-5.523-4.477-10-9.999-10zm-246-354.164c47.064 0 85.354 38.229 85.354 85.217 0 38.812-26.239 72.729-63.809 82.481-4.409 1.145-7.487 5.124-7.487 9.679v18.596h-28.117v-18.596c0-4.555-3.079-8.535-7.487-9.679-37.57-9.752-63.809-43.669-63.809-82.481.001-46.988 38.291-85.217 85.355-85.217zm-212.745 81.309c0-11.099 9.029-20.128 20.127-20.128h90.037c-1.814 7.722-2.774 15.77-2.774 24.037 0 45.297 28.949 85.196 71.296 99.598v21.158c0 5.523 4.477 10 10 10h48.117c5.522 0 10-4.477 10-10v-21.158c42.347-14.402 71.296-54.301 71.296-99.598 0-8.267-.96-16.314-2.774-24.037h90.037c11.099 0 20.128 9.029 20.128 20.128v272.855h-425.49zm-23.255 312.906v-20.051h162.681v36.656h-146.077c-9.155 0-16.604-7.449-16.604-16.605zm182.681 16.605v-36.656h106.639v36.656zm289.319-16.605c0 9.156-7.448 16.604-16.604 16.604h-146.077v-36.656h162.681z"/><path d="m248.934 199.962c1.952 1.949 4.509 2.924 7.066 2.924s5.114-.975 7.065-2.924l22.448-22.416c3.908-3.902 3.913-10.234.011-14.142-3.902-3.909-10.233-3.912-14.142-.01l-15.382 15.36-15.382-15.36c-3.909-3.903-10.24-3.897-14.142.01-3.902 3.908-3.898 10.24.01 14.142z"/></g></g></svg>