<svg id="Capa_1" enable-background="new 0 0 512 512" height="512" viewBox="0 0 512 512" width="512" xmlns="http://www.w3.org/2000/svg"><g><g><g><g><g><g><g><g><g><path d="m292.304 512h-113.15c-5.523 0-10-4.478-10-10v-84.496l-62.452 6.689c-8.969.958-17.712-1.701-24.624-7.495-6.91-5.793-11.056-13.937-11.676-22.932l-3.76-53.35c-23.342-10.663-25.02-12.411-26.265-13.71-6.765-7.059-7.309-18.066-1.42-25.99l27.943-49.088c-4.279-49.43 11.029-97.379 42.251-132.008 30.837-34.201 74.622-53.036 123.289-53.036l.322.004c19.146.004 37.316 2.264 54.009 6.717 5.336 1.424 8.508 6.903 7.084 12.239-1.423 5.336-6.904 8.51-12.24 7.085-14.943-3.986-31.296-6.019-48.612-6.041-.239.008-.477.007-.713-.004-42.87.038-81.322 16.523-108.286 46.43-28.115 31.182-41.566 74.842-36.904 119.782.215 2.075-.224 4.166-1.256 5.979l-29.857 52.45c-.277.487-.596.951-.951 1.386-.009.011-.018.022-.026.034 4.222 2.276 15.639 7.651 25.301 12.011 3.353 1.513 5.604 4.743 5.862 8.412l4.18 59.308c.244 3.538 1.867 6.727 4.573 8.994 2.707 2.27 6.13 3.312 9.645 2.936l73.517-7.874c2.82-.303 5.638.609 7.749 2.505 2.11 1.897 3.316 4.601 3.316 7.438v85.625h93.15v-64.078c0-18.886 10.178-36.664 26.562-46.397 51.051-30.329 77.176-82.337 80.42-120.425 1.162-13.639.818-27.452-1.021-41.057-.74-5.473 3.097-10.51 8.57-11.25 5.476-.737 10.509 3.097 11.25 8.57 2.036 15.053 2.416 30.339 1.129 45.434-3.409 40.025-29.06 99.64-90.133 135.923-10.348 6.147-16.776 17.337-16.776 29.202v74.078c0 5.522-4.477 10-10 10z" fill="#020288"/></g></g></g></g></g></g></g></g><g><g><g><g><g><g><path d="m458.836 116.857c-3.052-18.609-10.431-35.777-21.081-50.455l11.494-14.239-24.737-24.534-14.357 11.4c-14.8-10.562-32.11-17.881-50.872-20.908l-2.024-18.121h-34.984l-2.023 18.12c-18.763 3.027-36.073 10.345-50.872 20.908l-14.357-11.4-24.737 24.534 11.494 14.239c-10.65 14.678-18.029 31.846-21.081 50.455l-18.27 2.007v34.697l18.27 2.007c3.052 18.609 10.431 35.777 21.081 50.455l-11.494 14.239 24.737 24.534 14.357-11.4c14.8 10.562 32.11 17.881 50.872 20.908l2.023 18.12h34.984l2.023-18.12c18.763-3.027 36.073-10.345 50.872-20.908l14.357 11.4 24.737-24.534-11.494-14.239c10.65-14.678 18.029-31.846 21.081-50.455l18.27-2.007v-34.697zm-119.069 83.245c-35.578 0-64.419-28.605-64.419-63.89s28.841-63.89 64.419-63.89 64.419 28.605 64.419 63.89-28.841 63.89-64.419 63.89z" fill="#ffbdbc"/></g></g></g></g></g></g></g></svg>