<svg id="Capa_1" enable-background="new 0 0 512 512" height="512" viewBox="0 0 512 512" width="512" xmlns="http://www.w3.org/2000/svg"><g><g><g><g><g><g><g><path d="m485.882 470.073-26.564 31.927-26.564-31.927v-405.296c0-8.611 6.981-15.592 15.592-15.592h21.944c8.611 0 15.592 6.981 15.592 15.592z" fill="#b2f0fb"/></g></g></g></g></g><g><g><g><g><g><g><circle cx="153.298" cy="195.051" fill="#b2f0fb" r="71.535"/></g></g></g></g></g></g></g><g><g fill="#020288"><path d="m364.572 34.246h-82.207l-7.902-27.05c-1.245-4.265-5.155-7.196-9.599-7.196h-111.022c-4.443 0-8.353 2.931-9.599 7.196l-7.902 27.05h-82.207c-15.448 0-28.016 12.568-28.016 28.016v421.723c0 15.448 12.568 28.016 28.016 28.016h310.438c15.448 0 28.016-12.568 28.016-28.016v-421.723c0-15.448-12.567-28.016-28.016-28.016zm-220.734 20c4.443 0 8.353-2.931 9.599-7.196l7.901-27.05h96.029l7.902 27.05c1.245 4.265 5.155 7.196 9.599 7.196h12.414v22.171h-155.858v-22.171zm228.75 429.738c0 4.42-3.596 8.016-8.016 8.016h-310.438c-4.42 0-8.016-3.596-8.016-8.016v-421.722c0-4.42 3.596-8.016 8.016-8.016h57.29v32.171c0 5.523 4.477 10 10 10h175.858c5.522 0 10-4.477 10-10v-32.171h57.29c4.42 0 8.016 3.596 8.016 8.016z"/><path d="m153.298 309.169c-44.958 0-81.535 36.576-81.535 81.534s36.576 81.534 81.535 81.534 81.535-36.576 81.535-81.534-36.576-81.534-81.535-81.534zm0 143.068c-33.93 0-61.535-27.604-61.535-61.534s27.604-61.534 61.535-61.534 61.535 27.604 61.535 61.534-27.604 61.534-61.535 61.534z"/><path d="m127.392 198.952 15.185 13.177c1.886 1.637 4.222 2.447 6.552 2.447 2.567 0 5.127-.983 7.073-2.929l23.521-23.521c3.905-3.905 3.905-10.237 0-14.143-3.905-3.905-10.237-3.905-14.143 0l-16.932 16.933-8.147-7.07c-4.171-3.621-10.486-3.172-14.107.999s-3.174 10.487.998 14.107z"/><path d="m177.118 366.885c-3.906-3.905-10.237-3.905-14.142 0l-9.677 9.677-9.677-9.677c-3.905-3.905-10.237-3.905-14.142 0s-3.905 10.237 0 14.142l9.677 9.677-9.677 9.677c-3.905 3.905-3.906 10.237 0 14.142 1.953 1.953 4.512 2.929 7.071 2.929s5.119-.977 7.071-2.929l9.677-9.677 9.677 9.677c1.953 1.953 4.512 2.929 7.071 2.929s5.119-.977 7.071-2.929c3.905-3.905 3.905-10.237 0-14.142l-9.677-9.677 9.677-9.677c3.904-3.905 3.905-10.237 0-14.142z"/><path d="m336.942 158.761h-76.222c-5.523 0-10 4.477-10 10s4.477 10 10 10h76.222c5.522 0 10-4.477 10-10s-4.477-10-10-10z"/><path d="m336.942 211.34h-55.501c-5.522 0-10 4.477-10 10s4.478 10 10 10h55.501c5.522 0 10-4.477 10-10s-4.477-10-10-10z"/><path d="m336.942 354.414h-76.222c-5.523 0-10 4.477-10 10s4.477 10 10 10h76.222c5.522 0 10-4.477 10-10s-4.477-10-10-10z"/><path d="m336.942 406.993h-55.501c-5.522 0-10 4.477-10 10s4.478 10 10 10h55.501c5.522 0 10-4.477 10-10s-4.477-10-10-10z"/></g></g></g></svg>